<?xml version="1.0" encoding="UTF-8"?> <svg xmlns="http://www.w3.org/2000/svg" xmlns:xlink="http://www.w3.org/1999/xlink" version="1.1" id="Слой_1" x="0px" y="0px" viewBox="0 0 1427.9 145.7" style="enable-background:new 0 0 1427.9 145.7;" xml:space="preserve"> <style type="text/css"> .st0{fill:#FFFFFF;} </style> <g> <g> <path class="st0" d="M471,139.1V6.6h78.5c36.9,0,59,16.2,59,46.6v0.5c0,30.9-21.4,49.2-58.3,49.2h-38.9v36.2L471,139.1L471,139.1z M511.3,73.5h36.2c14.1,0,20.3-7,20.3-19.3v-0.4c0-10-5.7-17.7-20.2-17.7h-36.4L511.3,73.5L511.3,73.5z"></path> <g> <polygon class="st0" points="711.3,6.6 664.2,130.1 664.2,6.6 626.2,6.6 626.2,139.1 698.8,139.1 745.9,15.6 745.9,139.1 783.9,139.1 783.9,6.6 "></polygon> <polygon class="st0" points="377.4,6.6 330.3,130.1 330.3,6.6 292.3,6.6 292.3,139.1 364.9,139.1 412,15.6 412,139.1 450,139.1 450,6.6 "></polygon> </g> </g> <g> <path class="st0" d="M859.3,49.2L882.9,17h6.5v42.4h-6.7V27.3l-23.6,32.2h-6.5V17h6.7L859.3,49.2L859.3,49.2z"></path> <path class="st0" d="M903.3,59.5H897v-31h6.4v12.7H920V28.5h6.4v31H920V46.8h-16.7V59.5z"></path> <path class="st0" d="M932.3,44c0-4.5,1.6-8.4,4.7-11.5c3.2-3.1,7-4.6,11.7-4.6c6.7,0,12.4,3.7,14.8,9.8l-5.9,2 c-1.6-3.6-4.9-5.9-9-5.9c-2.8,0-5.2,1-7,2.9c-1.9,2-2.8,4.4-2.8,7.3s1,5.3,2.8,7.3s4.2,2.9,7,2.9c4.1,0,7.5-2.2,9-5.9l5.9,2 c-2.5,6.1-8.1,9.8-14.8,9.8c-4.7,0-8.5-1.5-11.7-4.6C933.8,52.4,932.3,48.5,932.3,44z"></path> <path class="st0" d="M983.5,59.5h-6.4V34.1h-10.7v-5.6h27.6v5.6h-10.6L983.5,59.5C983.5,59.4,983.5,59.4,983.5,59.5z"></path> <path class="st0" d="M1005,50.3l17.2-21.8h6.2v31h-6.4V37.6l-17.2,21.8h-6.2v-31h6.4L1005,50.3L1005,50.3z"></path> <path class="st0" d="M1049.8,59.5h-6.4V34.1h-10.7v-5.6h27.6v5.6h-10.6L1049.8,59.5C1049.9,59.4,1049.8,59.4,1049.8,59.5z"></path> <path class="st0" d="M1079.7,53.1l9.5-24.6h6.5L1078,71.6h-6.5l4.7-11.3l-13-31.8h6.9L1079.7,53.1z"></path> <path class="st0" d="M1115.4,59.5h-6.4V34.1h-10.7v-5.6h27.6v5.6h-10.6L1115.4,59.5C1115.4,59.4,1115.4,59.4,1115.4,59.5z"></path> <path class="st0" d="M1177.4,32.5c2.9,3.1,4.4,7,4.4,11.5s-1.5,8.4-4.4,11.5c-3,3.1-6.6,4.6-10.9,4.6c-4.6,0-8.3-1.8-11-5.2v16.7 h-6.4V28.5h6.4v4.6c2.7-3.5,6.4-5.2,11-5.2C1170.8,27.9,1174.4,29.4,1177.4,32.5z M1172.3,51.3c1.9-1.9,2.8-4.4,2.8-7.3 c0-3-0.9-5.4-2.8-7.3c-1.9-1.9-4.2-2.9-7-2.9c-2.8,0-5.2,1-7,2.9s-2.8,4.4-2.8,7.3c0,2.9,1,5.3,2.8,7.3s4.2,2.9,7,2.9 C1168.1,54.2,1170.5,53.2,1172.3,51.3z"></path> <path class="st0" d="M1212.7,39.2v20.3h-6.4v-4.6c-2.5,3.5-6.1,5.2-10.8,5.2c-5.9,0-10-3.4-10-8.7c0-6.1,4.8-8.9,11.4-9.6l6-0.6 c2.2-0.2,3.4-1.2,3.4-3c0-3-2.5-4.9-6.2-4.9c-3.8,0-6.6,2-7.3,5.7l-6.3-1.5c1.2-5.8,6.4-9.5,13.6-9.5 C1207.5,27.9,1212.7,31.9,1212.7,39.2z M1203.6,52.2c1.8-1.8,2.7-3.8,2.7-6.1v-1.2c-0.6,0.5-1.7,0.8-3.5,1l-5.9,0.7 c-3.1,0.4-5,1.8-5,4.2c0,2.4,1.9,4,5,4C1199.5,54.9,1201.8,54,1203.6,52.2z"></path> <path class="st0" d="M1243.8,51.1c0,2.7-1.2,4.9-3.6,6.5c-2.5,1.6-5.6,2.4-9.3,2.4c-5.4,0-10.6-1.8-13.8-5.2l3.5-4.3 c2.7,2.6,6.8,3.9,10.2,3.9c3.9,0,6.3-1.6,6.3-4c0-2.6-2.5-3.9-7.6-3.9h-4.3v-5.3h4.3c5,0,7.6-1.3,7.6-3.9c0-2.2-2.4-4-6.3-4 c-3.4,0-7.6,1.3-10.2,3.9l-3.5-4.3c3.2-3.3,8.4-5.1,13.8-5.1c3.7,0,6.8,0.8,9.3,2.4c2.4,1.6,3.6,3.8,3.6,6.6c0,3.1-2,5.7-5.4,7.1 C1241.9,45.5,1243.8,47.9,1243.8,51.1z"></path> <path class="st0" d="M1277.7,51c0,4.8-4.2,8.4-10.2,8.4h-17.2v-31h15.8c3,0,5.4,0.8,7.3,2.4c1.9,1.6,2.8,3.6,2.8,6.1 c0,2.9-1.2,5.2-3.6,6.7C1275.9,44.9,1277.7,47.7,1277.7,51z M1256.3,33.8v7.5h9.4c2.5,0,4.3-1.6,4.3-3.8c0-2.1-1.8-3.7-4.3-3.7 L1256.3,33.8L1256.3,33.8z M1256.3,54.1h10.8c2.5,0,4.2-1.6,4.2-3.8c0-2.1-1.8-3.7-4.2-3.7h-10.8V54.1z"></path> <path class="st0" d="M1290.3,50.3l17.2-21.8h6.2v31h-6.4V37.6l-17.2,21.8h-6.2v-31h6.4V50.3z"></path> <path class="st0" d="M1335.2,59.5h-6.4V34.1h-10.7v-5.6h27.6v5.6h-10.6L1335.2,59.5C1335.2,59.4,1335.2,59.4,1335.2,59.5z"></path> <path class="st0" d="M1356.7,50.3l17.2-21.8h6.2v31h-6.4V37.6l-17.2,21.8h-6.2v-31h6.4V50.3z"></path> <path class="st0" d="M1413.3,28.5v31h-6.4V48.4h-5.5l-8.4,11.1h-7.4l8.7-11.5c-4.7-1.2-7.8-4.8-7.8-9.6c0-2.9,1-5.3,3-7.1 s4.6-2.8,7.8-2.8L1413.3,28.5L1413.3,28.5L1413.3,28.5z M1407,42.7v-8.6h-9.3c-2.7,0-4.5,1.9-4.5,4.4c0,2.4,1.9,4.2,4.5,4.2H1407z "></path> <path class="st0" d="M858.9,116.4l17.2-21.8h6.2v31H876v-21.8l-17.2,21.8h-6.2v-31h6.4V116.4z"></path> <path class="st0" d="M896.2,125.5h-6.4v-31h6.4v12.7h16.7V94.6h6.4v31h-6.4v-12.7h-16.7V125.5z"></path> <path class="st0" d="M940.7,125.5h-6.4v-25.3h-10.7v-5.6h27.6v5.6h-10.6L940.7,125.5L940.7,125.5z"></path> <path class="st0" d="M982.1,99.3c3.1,3.6,4.4,7.9,3.8,12.9h-25.6c0.9,5,4.9,8.4,10.2,8.4c4.1,0,7.4-2.1,9.2-5.5l5.3,2.4 c-2.7,5.3-8.1,8.7-14.7,8.7c-4.7,0-8.5-1.5-11.7-4.6c-3.2-3.1-4.7-6.9-4.7-11.4s1.6-8.4,4.7-11.5c3.1-3.1,6.9-4.6,11.5-4.6 C974.9,94,979,95.7,982.1,99.3z M960.4,107.2h19c-1-4.6-4.7-7.8-9.5-7.8C965.3,99.5,961.6,102.6,960.4,107.2z"></path> <path class="st0" d="M1020,98.6c2.9,3.1,4.4,7,4.4,11.5s-1.5,8.4-4.4,11.4c-3,3.1-6.6,4.6-10.9,4.6c-4.6,0-8.3-1.8-11-5.2v16.7 h-6.4V94.6h6.4v4.6c2.7-3.4,6.4-5.2,11-5.2C1013.4,94,1017,95.5,1020,98.6z M1015,117.4c1.9-1.9,2.8-4.4,2.8-7.3 c0-3-0.9-5.4-2.8-7.3s-4.2-2.9-7-2.9c-2.8,0-5.2,1-7,2.9s-2.8,4.4-2.8,7.3c0,2.9,1,5.3,2.8,7.3c1.9,1.9,4.2,2.9,7,2.9 C1010.7,120.3,1013.1,119.3,1015,117.4z"></path> <path class="st0" d="M1036.8,125.5h-6.4v-31h6.4v12.7h16.7V94.6h6.4v31h-6.4v-12.7h-16.7V125.5z"></path> <path class="st0" d="M1093.9,99.3c3.1,3.6,4.4,7.9,3.8,12.9h-25.6c0.9,5,4.9,8.4,10.2,8.4c4.1,0,7.4-2.1,9.2-5.5l5.3,2.4 c-2.7,5.3-8.1,8.7-14.7,8.7c-4.7,0-8.5-1.5-11.7-4.6c-3.2-3.1-4.7-6.9-4.7-11.4s1.6-8.4,4.7-11.5c3.1-3.1,6.9-4.6,11.4-4.6 C1086.8,94,1090.9,95.7,1093.9,99.3z M1072.3,107.2h19c-1-4.6-4.7-7.8-9.5-7.8C1077.2,99.5,1073.5,102.6,1072.3,107.2z"></path> <path class="st0" d="M1117.4,125.5h-6.4v-25.3h-10.7v-5.6h27.6v5.6h-10.6L1117.4,125.5L1117.4,125.5z"></path> <path class="st0" d="M1157.8,105.2v20.3h-6.4v-4.6c-2.5,3.4-6.1,5.2-10.8,5.2c-5.9,0-10-3.4-10-8.7c0-6.1,4.8-8.9,11.4-9.6l6-0.6 c2.2-0.2,3.4-1.2,3.4-3c0-3-2.5-4.9-6.2-4.9c-3.8,0-6.6,2-7.3,5.7l-6.3-1.5c1.2-5.8,6.4-9.5,13.6-9.5 C1152.7,94,1157.8,98,1157.8,105.2z M1148.8,118.3c1.8-1.8,2.7-3.8,2.7-6.1V111c-0.6,0.5-1.7,0.8-3.5,1l-5.9,0.7 c-3.1,0.4-5,1.8-5,4.2s1.9,4,5,4C1144.7,121,1146.9,120.1,1148.8,118.3z"></path> </g> <g> <path class="st0" d="M165.4,72.8L165.4,72.8L165.4,72.8z"></path> </g> <g> <polygon class="st0" points="87.8,72.8 87.8,6.6 14.8,6.6 14.8,139.1 26.6,139.1 "></polygon> <polygon class="st0" points="99.7,139.1 160.9,72.8 160.9,6.6 149.1,6.6 87.8,72.8 87.8,139.1 "></polygon> <polygon class="st0" points="234,139.1 234,6.6 222.2,6.6 160.9,72.8 160.9,139.1 "></polygon> </g> </g> </svg> 