<?xml version="1.0" encoding="UTF-8"?> <svg xmlns="http://www.w3.org/2000/svg" xmlns:xlink="http://www.w3.org/1999/xlink" version="1.1" id="Слой_1" x="0px" y="0px" viewBox="0 0 45 17" style="enable-background:new 0 0 45 17;" xml:space="preserve"> <style type="text/css"> .st0{fill-rule:evenodd;clip-rule:evenodd;fill:#FFFFFF;} </style> <title>irk white@1х</title> <desc>Created with Sketch.</desc> <g id="Page-1"> <g id="RECYCLE_MAP_START-Copy-10" transform="translate(-15.000000, -17.000000)"> <g id="Group"> <g> <g id="irk-white" transform="translate(15.000000, 17.000000)"> <path id="illa-copy" class="st0" d="M0,16.9h3.3V0H0V16.9z M10.8,4.1c-0.4-1.6-2.6-1.3-2.6-1.3v4.4l0,0c0.5,0.1,1.1,0,1.8-0.3 C10.6,6.6,11.2,5.7,10.8,4.1L10.8,4.1z M11.1,16.9L8.2,9.1l0,0V17H4.8V0H8c0,0,2.1,0,3.6,0.5c1.4,0.6,2.6,2.2,2.4,5 c-0.2,2.6-2.1,3.6-2.3,3.8l2.8,7.6H11.1z M22,16.9l-3.2-8.8v8.8h-3.3V0h3.3v7.6L21.5,0h3.4l-3.1,7.8l3.5,9H22V16.9z"></path> <path id="Path" class="st0" d="M44,14.5c0,0-0.1,1-1,1.7c-0.7,0.6-1.8,0.6-2.3,0.6s-1.6-0.1-2.3-0.6c-0.9-0.7-1-1.7-1-1.7 l-0.1-9.2h2.2l0.1,8.7c0,0,0.2,0.8,0.9,0.9c0.1,0,0.1,0,0.2,0c0.1,0,0.1,0,0.2,0c0.7,0,0.9-0.9,0.9-0.9l0.1-8.7h2.2L44,14.5z"></path> <path id="Combined-Shape" class="st0" d="M35.4,11.6l1.9,5.3h-2.4l-2-5.4l0,0v5.4h-2.3V5.3h2.2c0,0,1.5,0,2.5,0.4 s1.8,1.4,1.7,3.4C36.8,10.8,35.5,11.5,35.4,11.6z M34.7,8.1c-0.3-1.1-1.8-0.9-1.8-0.9v3.1l0,0c0.3,0,0.8,0,1.2-0.2 C34.6,9.8,35,9.2,34.7,8.1z"></path> <path class="st0" d="M27.9,16.9c-0.7,0-1.3-0.6-1.3-1.4c0-0.7,0.6-1.4,1.3-1.4c0.7,0,1.3,0.6,1.3,1.4 C29.2,16.3,28.6,16.9,27.9,16.9L27.9,16.9z"></path> </g> </g> </g> </g> </g> </svg> 