<?xml version="1.0" encoding="UTF-8"?> <svg xmlns="http://www.w3.org/2000/svg" width="658" height="240" viewBox="0 0 658 240" fill="none"><g clip-path="url(#clip0_113_118)"><path d="M100.219 139.744V120.461C100.297 118.275 100.312 116.214 100.281 114.278C100.234 112.342 100.219 110.593 100.219 109.063V105.175C96.3364 105.659 92.8908 105.955 89.8662 106.08C89.3984 106.096 88.8372 106.112 88.2291 106.127V78.3658C88.2291 71.9798 88.2603 66.8116 88.3539 62.8457C88.4318 58.8798 88.6345 55.4448 88.9619 52.5406C89.2893 49.6364 89.8506 46.4824 90.6613 43.0786H16.3081C17.3527 47.3568 18.0075 51.5101 18.2414 55.5072C18.4909 59.5044 18.6 64.7506 18.6 71.2147V75.5866C18.6 80.7548 18.3194 85.4233 17.7581 89.5922C17.1968 93.7611 16.542 97.2117 15.8248 99.9598C15.17 102.474 14.4216 104.519 13.6265 106.143C12.8781 106.127 12.2077 106.096 11.6464 106.08C8.85566 105.955 5.53479 105.612 1.65265 105.05C1.65265 106.908 1.66824 108.75 1.71501 110.562C1.74619 111.67 1.74619 112.794 1.74619 113.903H1.65265V137.542V141.898C1.65265 143.6 1.57469 145.661 1.40319 148.082L26.832 148.815C26.2707 146.786 25.8498 144.959 25.5536 143.304C25.2729 141.649 25.1326 139.962 25.1326 138.276V130.766C25.1326 130.766 25.1794 130.766 25.195 130.766C29.1083 130.61 34.1753 130.532 40.3961 130.532H57.9515C65.061 130.532 70.284 130.61 73.636 130.766C74.6338 130.813 75.694 130.906 76.723 130.984V136.465C76.723 138.323 76.5983 140.15 76.3644 141.914C76.115 143.694 75.6784 145.989 75.0392 148.831L100.593 146.52C100.515 144.412 100.39 142.96 100.234 142.148V139.728L100.219 139.744ZM35.3135 106.268C36.8258 105.05 38.2758 103.457 39.6166 101.412C41.5966 98.414 43.2649 93.6518 44.6369 87.1096C45.6815 82.1444 46.3207 76.0082 46.5701 68.6697H57.6709C57.7021 71.5426 57.7021 74.7591 57.7021 78.3658L57.7644 106.252H35.2823L35.3135 106.268Z" fill="white"></path><path d="M167.26 108.282C164.64 108.563 160.29 108.703 154.241 108.703H147.568C147.568 108.313 147.537 107.938 147.521 107.548C147.428 104.534 147.381 100.303 147.35 94.8695H153.633C157.671 94.8695 160.758 94.9476 162.894 95.1037C165.03 95.2755 167.026 95.5097 168.897 95.8376L166.589 73.8845C163.112 74.5403 158.918 74.8526 153.992 74.8526H147.366C147.381 72.2295 147.412 69.8874 147.444 67.8732C147.459 66.9052 147.49 65.9527 147.521 65.0159H152.9C159.121 65.0159 163.533 65.1408 166.153 65.375C168.772 65.6092 171.952 66.1869 175.663 67.0769L170.456 42.2197C167.462 42.6257 164.703 42.8755 162.161 42.9536C159.62 43.0316 156.658 43.0785 153.259 43.0785H113.065C113.876 46.2325 114.453 49.1679 114.827 51.8691C115.186 54.5859 115.42 57.9272 115.498 61.94C115.576 65.9371 115.622 71.4644 115.622 78.4906V95.2286C115.622 102.099 115.576 107.501 115.498 111.42C115.42 115.339 115.217 118.712 114.89 121.538C114.562 124.364 113.923 127.362 112.956 130.516H154.615C157.999 130.516 160.976 130.578 163.518 130.703C166.059 130.828 168.819 131.078 171.812 131.5L176.411 106.393L175.803 106.517C172.732 107.407 169.894 107.985 167.26 108.266V108.282Z" fill="white"></path><path d="M274.915 62.8613C275.04 58.8954 275.258 55.4604 275.585 52.5562C275.913 49.652 276.474 46.4981 277.285 43.0942H188.401C189.617 47.8721 190.319 52.3688 190.521 56.6158C190.724 60.8628 190.817 68.1232 190.817 78.3815L190.693 105.331C190.693 112.123 190.209 118.087 189.243 123.224C188.276 128.361 186.826 132.639 184.877 136.075C182.944 139.51 180.559 142.117 177.737 143.897L177.861 144.74C186.982 144.818 194.7 143.897 200.983 141.945C207.282 140.009 212.442 135.84 216.48 129.454C220.518 123.068 222.529 113.731 222.529 101.443V78.3659C222.529 74.4312 222.529 70.9493 222.576 67.9358H243.063C243.094 70.9805 243.109 74.4468 243.109 78.3659V95.2132C243.109 101.677 243.047 106.892 242.922 110.858C242.798 114.824 242.579 118.244 242.252 121.101C241.925 123.974 241.363 127.112 240.553 130.5H277.129C275.991 125.738 275.32 121.241 275.071 117.041C274.821 112.841 274.712 105.565 274.712 95.2132V78.3659C274.712 71.9798 274.775 66.8116 274.899 62.8457L274.915 62.8613Z" fill="white"></path><path d="M371.251 63.8917C367.369 56.8967 361.913 51.4162 354.85 47.466C347.787 43.5 339.649 41.5171 330.45 41.5171C321.251 41.5171 313.066 43.5157 305.925 47.5284C298.785 51.5255 293.297 57.006 289.461 63.9541C285.626 70.9023 283.708 78.6624 283.708 87.2343C283.708 95.8063 285.642 103.27 289.524 110.093C293.39 116.932 298.894 122.303 305.988 126.222C313.097 130.141 321.251 132.108 330.45 132.108C339.649 132.108 347.787 130.157 354.85 126.222C361.913 122.303 367.385 116.932 371.251 110.093C375.134 103.27 377.067 95.6502 377.067 87.2343C377.067 78.8185 375.134 70.8867 371.251 63.8917ZM342.252 98.2109C341.161 101.006 339.633 103.098 337.653 104.519C335.673 105.94 333.397 106.642 330.809 106.642C328.22 106.642 325.757 105.799 323.668 104.097C321.563 102.395 319.91 99.9284 318.71 96.6963C317.494 93.4643 316.886 89.6701 316.886 85.2982C316.886 81.2543 317.432 77.8661 318.523 75.118C319.614 72.37 321.127 70.3246 323.06 68.9974C324.993 67.6702 327.254 66.9988 329.842 66.9988C332.586 66.9988 335.003 67.8108 337.107 69.419C339.196 71.0428 340.865 73.4161 342.065 76.5701C343.281 79.7241 343.874 83.5963 343.874 88.218C343.874 92.1059 343.328 95.4316 342.237 98.2265L342.252 98.2109Z" fill="white"></path><path d="M655.739 217.875C653.182 218.625 650.797 219.109 648.614 219.343C646.416 219.577 642.799 219.702 637.747 219.702H632.181C632.181 219.374 632.15 219.062 632.135 218.734C632.057 216.22 632.01 212.676 631.994 208.148H637.233C640.6 208.148 643.189 208.21 644.966 208.351C646.759 208.491 648.427 208.694 649.971 208.96L648.053 190.629C645.153 191.176 641.645 191.441 637.529 191.441H631.994C632.01 189.255 632.041 187.303 632.057 185.617C632.057 184.805 632.088 184.009 632.119 183.244H636.609C641.801 183.244 645.496 183.337 647.679 183.556C649.877 183.759 652.512 184.227 655.615 184.977L651.265 164.21C648.77 164.554 646.463 164.757 644.342 164.819C642.222 164.882 639.743 164.929 636.905 164.929H603.338C604.009 167.567 604.507 170.003 604.804 172.267C605.1 174.531 605.287 177.326 605.365 180.667C605.427 184.009 605.474 188.615 605.474 194.486V208.46C605.474 214.206 605.443 218.703 605.365 221.982C605.287 225.26 605.131 228.071 604.866 230.444C604.601 232.802 604.055 235.3 603.245 237.939H638.028C640.866 237.939 643.345 237.986 645.465 238.095C647.585 238.204 649.893 238.407 652.387 238.751L656.223 217.781L655.724 217.891L655.739 217.875Z" fill="white"></path><path d="M59.9628 213.862C56.4548 215.424 53.4458 216.611 50.9201 217.454C48.3943 218.297 45.5724 218.718 42.4698 218.718C39.3672 218.718 36.6076 218.078 34.3781 216.798C32.1486 215.518 30.4648 213.628 29.3266 211.13C28.1729 208.632 27.6116 205.603 27.6116 202.012C27.6116 198.639 28.2041 195.719 29.3734 193.252C30.5583 190.785 32.2265 188.896 34.3781 187.584C36.5296 186.273 39.0554 185.601 41.9553 185.601C44.8552 185.601 47.8331 186.039 50.4991 186.913C53.1652 187.787 55.878 188.943 58.6376 190.364C58.6999 190.426 58.7935 190.457 58.887 190.457C58.9806 190.457 59.0741 190.489 59.1365 190.567L55.6909 166.974C53.2587 166.24 50.5615 165.6 47.5992 165.101C44.6369 164.601 41.3628 164.335 37.7925 164.335C30.1685 164.335 23.5112 165.897 17.8205 169.051C12.1298 172.189 7.71757 176.67 4.63057 182.463C1.52797 188.271 -0.0155334 195.048 -0.0155334 202.823C-0.0155334 210.053 1.52797 216.486 4.63057 222.122C7.73316 227.759 12.2078 232.146 18.0855 235.285C23.9477 238.423 30.761 240 38.5097 240C42.4854 240 45.8842 239.766 48.7217 239.297C51.5593 238.829 54.3813 238.158 57.2188 237.268L60.1499 213.675C60.1499 213.675 60.0252 213.769 59.994 213.769C59.9628 213.769 59.9472 213.8 59.9472 213.862H59.9628Z" fill="white"></path><path d="M140.35 224.558C140.287 221.966 140.241 218.562 140.241 214.378V199.701C140.241 194.361 140.256 189.505 140.287 185.117C140.318 180.73 140.443 177.061 140.646 174.125C140.849 171.19 141.223 168.364 141.753 165.663H111.725L91.6124 201.309L91.7059 189.864C91.7059 185.742 91.7059 182.401 91.7527 179.84C91.7839 177.279 91.9554 174.89 92.2516 172.704C92.5478 170.518 93.0779 168.161 93.8107 165.663H67.2126C67.9609 168.161 68.4754 170.503 68.7872 172.704C69.0991 174.906 69.255 177.279 69.2861 179.84C69.3173 182.401 69.3329 185.742 69.3329 189.864V207.086C69.3329 216.532 69.2861 223.324 69.177 227.446C69.0679 231.569 68.7561 235.316 68.2104 238.688H90.6613L117.961 194.501V214.378C117.961 218.562 117.93 221.95 117.868 224.558C117.805 227.165 117.618 229.554 117.306 231.74C117.01 233.942 116.48 236.253 115.747 238.673H142.439C141.69 236.237 141.176 233.926 140.88 231.74C140.584 229.554 140.396 227.15 140.318 224.558H140.35Z" fill="white"></path><path d="M202.994 200.606C197.459 199.139 189.835 198.577 180.2 198.936C180.2 195.719 180.216 192.924 180.247 190.582C180.278 188.225 180.309 186.039 180.356 183.993H189.196C194.388 183.993 198.083 184.087 200.266 184.305C202.464 184.508 205.099 184.977 208.201 185.726L203.852 164.96C201.357 165.303 199.05 165.506 196.929 165.569C194.809 165.631 192.33 165.678 189.492 165.678H152.682V165.787C153.352 168.083 153.805 170.409 154.054 172.767C154.288 175.125 154.444 178.091 154.506 181.636C154.569 185.18 154.615 189.755 154.615 195.36V206.899C154.615 213.113 154.6 218.094 154.569 221.841C154.537 225.588 154.366 228.727 154.07 231.256C153.773 233.786 153.243 236.268 152.511 238.704C152.916 238.704 153.29 238.735 153.618 238.798C158.872 239.204 164.438 239.5 170.3 239.703C176.162 239.906 181.759 240 187.091 240C194.778 240 200.967 239.001 205.644 237.018C210.322 235.019 213.643 232.443 215.607 229.273C217.556 226.104 218.538 222.684 218.538 219.046C218.538 214.456 217.416 210.63 215.155 207.554C212.894 204.479 208.856 202.168 203.025 200.622L202.994 200.606ZM191.41 217.36C190.802 218.547 189.991 219.452 188.978 220.092C187.964 220.733 186.717 221.06 185.236 221.06C183.755 221.06 182.663 220.795 181.744 220.248C180.839 219.702 180.309 218.906 180.169 217.813V201.918C180.169 201.434 180.169 201.012 180.169 200.544C183.646 200.997 186.452 202.199 188.619 204.151C191.083 206.383 192.314 209.288 192.314 212.863C192.314 214.69 192.018 216.189 191.41 217.376V217.36Z" fill="white"></path><path d="M297.896 224.558C297.834 221.966 297.802 218.562 297.802 214.378V199.701C297.802 194.361 297.802 189.505 297.849 185.117C297.88 180.73 298.005 177.061 298.208 174.125C298.411 171.19 298.785 168.364 299.315 165.663H269.287L249.174 201.309L249.268 189.864C249.268 185.742 249.268 182.401 249.315 179.84C249.346 177.279 249.517 174.89 249.814 172.704C250.125 170.503 250.64 168.161 251.388 165.663H224.79C225.538 168.161 226.053 170.503 226.349 172.704C226.661 174.906 226.817 177.279 226.848 179.84C226.879 182.401 226.895 185.742 226.895 189.864V207.086C226.895 216.532 226.848 223.324 226.739 227.446C226.63 231.569 226.318 235.316 225.772 238.688H248.223L275.523 194.501V214.378C275.523 218.562 275.492 221.95 275.414 224.558C275.352 227.165 275.164 229.554 274.853 231.74C274.556 233.942 274.026 236.253 273.294 238.673H299.985C299.237 236.237 298.722 233.926 298.411 231.74C298.114 229.554 297.927 227.15 297.849 224.558H297.896Z" fill="white"></path><path d="M365.685 170.425C359.995 166.303 350.843 164.242 338.23 164.242C328.392 164.242 319.022 164.71 310.119 165.663C310.79 168.098 311.242 170.612 311.491 173.204C311.725 175.812 311.897 179.2 311.99 183.384C312.084 187.569 312.146 193.315 312.146 200.606V209.209C312.146 214.612 312.099 218.968 311.99 222.278C311.897 225.588 311.71 228.446 311.429 230.835C311.164 233.239 310.681 235.847 310.01 238.688H340.553C339.602 234.707 339.041 230.96 338.838 227.446C338.635 223.933 338.542 217.86 338.542 209.225V201.231C338.542 196.64 338.573 193.018 338.635 190.348C338.698 187.678 338.729 185.679 338.729 184.321C338.791 184.181 338.807 184.056 338.776 183.915C338.744 183.775 338.729 183.65 338.729 183.509C339.134 183.447 339.477 183.384 339.742 183.353C340.007 183.322 340.381 183.306 340.849 183.306C343.609 183.306 345.558 184.227 346.665 186.085C347.771 187.943 348.333 190.254 348.333 193.018C348.333 197.265 347.569 201.012 346.056 204.26C344.544 207.508 342.237 209.865 339.134 211.349L339.243 212.051C346.587 212.395 352.839 211.786 357.999 210.224C363.16 208.679 367.151 206.009 369.989 202.23C372.826 198.452 374.229 193.486 374.229 187.35C374.229 180.199 371.376 174.562 365.685 170.44V170.425Z" fill="white"></path><path d="M437.03 213.862C433.522 215.424 430.513 216.611 427.987 217.454C425.461 218.297 422.639 218.718 419.537 218.718C416.434 218.718 413.674 218.078 411.445 216.798C409.215 215.518 407.532 213.628 406.393 211.13C405.24 208.632 404.678 205.603 404.678 202.012C404.678 198.639 405.271 195.719 406.44 193.252C407.625 190.785 409.293 188.896 411.445 187.584C413.596 186.273 416.122 185.601 419.022 185.601C421.922 185.601 424.9 186.039 427.566 186.913C430.232 187.787 432.945 188.943 435.704 190.364C435.767 190.426 435.86 190.457 435.954 190.457C436.047 190.457 436.141 190.489 436.203 190.567L432.758 166.974C430.326 166.24 427.628 165.6 424.666 165.101C421.704 164.601 418.43 164.335 414.859 164.335C407.235 164.335 400.578 165.897 394.887 169.051C389.197 172.189 384.784 176.67 381.697 182.463C378.595 188.271 377.051 195.048 377.051 202.823C377.051 210.053 378.595 216.486 381.697 222.122C384.8 227.759 389.275 232.146 395.152 235.285C401.015 238.423 407.828 240 415.576 240C419.552 240 422.951 239.766 425.789 239.297C428.626 238.829 431.448 238.158 434.286 237.268L437.217 213.675C437.217 213.675 437.092 213.769 437.061 213.769C437.03 213.769 437.014 213.8 437.014 213.862H437.03Z" fill="white"></path><path d="M518.227 236.955C515.998 233.911 513.675 230.319 511.243 226.166C508.81 222.013 505.848 216.189 502.34 208.694L494.311 192.019L498.692 186.913C499.83 185.492 501.685 183.275 504.258 180.23C506.207 177.873 508.311 175.39 510.572 172.782C512.833 170.191 514.875 167.802 516.684 165.647H486.141C486.281 167.942 485.892 170.394 484.972 172.985C484.068 175.593 482.493 179.356 480.263 184.274C480.123 184.743 479.967 185.242 479.764 185.742C479.562 186.242 479.359 186.772 479.156 187.319L472.78 201.59L474.604 205.946L477.332 211.817C478.611 214.581 479.78 217.126 480.825 219.468C481.869 221.794 482.789 223.902 483.6 225.791C484.878 228.43 486.032 230.835 487.045 233.036C488.059 235.238 489.041 237.111 489.976 238.657H519.397C519.194 238.392 518.991 238.095 518.789 237.798C518.586 237.502 518.383 237.205 518.18 236.94L518.227 236.955Z" fill="white"></path><path d="M472.92 182.166C472.982 178.856 473.154 175.983 473.419 173.563C473.684 171.127 474.152 168.504 474.838 165.663H444.295C445.308 169.644 445.901 173.407 446.072 176.951C446.244 180.496 446.322 186.554 446.322 195.126L446.415 209.194C446.415 214.596 446.369 218.953 446.259 222.263C446.15 225.573 445.979 228.43 445.698 230.819C445.433 233.224 444.95 235.831 444.279 238.673H474.822C473.871 234.691 473.31 230.944 473.107 227.431C472.904 223.918 472.811 217.844 472.811 209.21V195.141C472.811 189.802 472.842 185.492 472.92 182.182V182.166Z" fill="white"></path><path d="M575.914 169.316C570.02 166.006 563.223 164.351 555.536 164.351C547.85 164.351 541.021 166.022 535.065 169.363C529.094 172.704 524.51 177.279 521.314 183.088C518.118 188.896 516.512 195.376 516.512 202.527C516.512 209.678 518.134 215.908 521.361 221.623C524.604 227.322 529.188 231.818 535.112 235.097C541.037 238.376 547.85 240.016 555.536 240.016C563.223 240.016 570.02 238.376 575.914 235.097C581.807 231.818 586.375 227.337 589.618 221.623C592.861 215.924 594.467 209.553 594.467 202.527C594.467 195.501 592.845 188.88 589.618 183.025C586.375 177.186 581.807 172.611 575.914 169.301V169.316ZM565.405 211.692C564.501 214.019 563.207 215.783 561.57 216.954C559.917 218.141 558.015 218.718 555.864 218.718C553.712 218.718 551.654 218.016 549.892 216.595C548.146 215.174 546.759 213.113 545.745 210.412C544.732 207.711 544.233 204.541 544.233 200.887C544.233 197.515 544.685 194.673 545.605 192.378C546.509 190.083 547.772 188.381 549.393 187.257C551.015 186.148 552.901 185.586 555.053 185.586C557.345 185.586 559.372 186.257 561.118 187.616C562.864 188.974 564.252 190.957 565.265 193.596C566.278 196.234 566.777 199.467 566.777 203.323C566.777 206.571 566.325 209.35 565.405 211.677V211.692Z" fill="white"></path><path d="M401.061 116.619L412.022 127.455L435.86 102.551L434.753 132.655L448.801 131.937L449.456 102.942L473.715 126.3L480.903 117.822L461.772 97.8672L442.611 76.7104L421.392 95.7437L401.061 116.619Z" fill="white"></path><path d="M487.108 116.401L498.551 127.252L522.265 103.504L521.143 132.764L537.404 132.795L536.079 102.957L560.323 126.362L571.657 116.292L548.91 97.3363L529.234 74.7275L508.062 95.775L487.108 116.401Z" fill="white"></path><path d="M575.196 116.947L585.549 128.096L608.998 103.035L607.174 133.03L620.473 131.25L622.64 102.645L646.774 126.753L658 116.401L635.596 97.2895L615.858 76.1172L596.338 97.4925L575.196 116.947Z" fill="white"></path><path d="M486.702 78.3033L497.71 86.6255L512.739 71.886L529.234 58.9109L544.373 73.26L559.855 90.2791L568.212 79.6149L548.801 59.5043L529.234 40.9082L508.717 58.5206L486.702 78.3033Z" fill="white"></path><path d="M575.883 79.2399L584.364 86.7346L599.924 72.4479L615.858 56.1783L632.509 71.7297L646.728 89.2952L655.646 79.318L634.832 60.0818L615.858 37.9102L594.545 57.7553L575.883 79.2399Z" fill="white"></path><path d="M615.858 18.5492L631.745 34.5534L646.665 51.5412L654.539 41.767L636.594 20.376L615.858 0L596.073 21.3285L577.691 41.9543L584.816 50.5888L599.035 33.6478L615.858 18.5492Z" fill="white"></path></g><defs><clipPath id="clip0_113_118"><rect width="658" height="240" fill="white"></rect></clipPath></defs></svg> 