<?xml version="1.0" encoding="UTF-8"?> <svg xmlns="http://www.w3.org/2000/svg" width="508" height="58" viewBox="0 0 508 58" fill="none"><path d="M491.2 42.42L491.26 31.62H491.92L476.26 56.28H462.88C463.2 53.52 463.38 51.04 463.42 48.84C463.5 46.64 463.54 43.26 463.54 38.7V26.88C463.54 25.64 463.52 24.26 463.48 22.74C463.44 21.18 463.32 19.58 463.12 17.94C462.96 16.26 462.7 14.62 462.34 13.02H479.74C479.38 14.62 479.1 16.26 478.9 17.94C478.74 19.58 478.64 21.18 478.6 22.74C478.56 24.26 478.54 25.64 478.54 26.88L478.48 31.68H477.76L488.32 13.02H507.28C506.92 14.9 506.66 16.78 506.5 18.66C506.38 20.5 506.3 22.7 506.26 25.26C506.22 27.78 506.2 30.52 506.2 33.48V42.42C506.2 43.66 506.22 45.06 506.26 46.62C506.3 48.14 506.4 49.74 506.56 51.42C506.76 53.06 507.04 54.68 507.4 56.28H490C490.36 54.68 490.62 53.06 490.78 51.42C490.98 49.74 491.1 48.14 491.14 46.62C491.18 45.06 491.2 43.66 491.2 42.42ZM485.2 10.26C482.16 10.26 480 9.48 478.72 7.92C477.48 6.32 476.82 3.68 476.74 0C477.86 1.16 479.08 2 480.4 2.52C481.72 3 483.32 3.24 485.2 3.24C487.08 3.24 488.66 3 489.94 2.52C491.26 2.04 492.48 1.2 493.6 0C493.52 3.68 492.84 6.32 491.56 7.92C490.32 9.48 488.2 10.26 485.2 10.26Z" fill="white"></path><path d="M440.751 42.42L440.811 31.62H441.471L425.811 56.28H412.431C412.751 53.52 412.931 51.04 412.971 48.84C413.051 46.64 413.091 43.26 413.091 38.7V26.88C413.091 25.64 413.071 24.26 413.031 22.74C412.991 21.18 412.871 19.58 412.671 17.94C412.511 16.26 412.251 14.62 411.891 13.02H429.291C428.931 14.62 428.651 16.26 428.451 17.94C428.291 19.58 428.191 21.18 428.151 22.74C428.111 24.26 428.091 25.64 428.091 26.88L428.031 31.68H427.311L437.871 13.02H456.831C456.471 14.9 456.211 16.78 456.051 18.66C455.931 20.5 455.851 22.7 455.811 25.26C455.771 27.78 455.751 30.52 455.751 33.48V42.42C455.751 43.66 455.771 45.06 455.811 46.62C455.851 48.14 455.951 49.74 456.111 51.42C456.311 53.06 456.591 54.68 456.951 56.28H439.551C439.911 54.68 440.171 53.06 440.331 51.42C440.531 49.74 440.651 48.14 440.691 46.62C440.731 45.06 440.751 43.66 440.751 42.42Z" fill="white"></path><path d="M387.494 37.3196C387.494 42.5196 387.534 46.4196 387.614 49.0196C387.734 51.5796 388.034 53.9996 388.514 56.2796H368.414C368.774 54.6796 369.014 52.9996 369.134 51.2396C369.294 49.4396 369.394 47.3596 369.434 44.9996C369.474 42.5996 369.494 40.0396 369.494 37.3196V33.9596C369.494 30.9196 369.474 28.0596 369.434 25.3796C369.394 22.6596 369.294 20.3196 369.134 18.3596C369.014 16.3996 368.794 14.6196 368.474 13.0196C374.994 12.4196 380.934 12.1196 386.294 12.1196C394.294 12.1196 400.114 13.3996 403.754 15.9596C407.394 18.5196 409.214 22.1396 409.214 26.8196C409.214 30.7396 408.314 33.7996 406.514 35.9996C404.754 38.1996 402.394 39.7396 399.434 40.6196C396.474 41.4996 392.894 42.0396 388.694 42.2396C389.654 41.4396 390.474 39.9396 391.154 37.7396C391.834 35.4996 392.174 33.1596 392.174 30.7196C392.174 29.0396 391.854 27.6796 391.214 26.6396C390.614 25.5596 389.574 25.0196 388.094 25.0196C387.974 25.0196 387.874 25.0196 387.794 25.0196C387.714 25.0196 387.614 25.0196 387.494 25.0196C387.494 25.0996 387.494 25.1796 387.494 25.2596C387.494 25.3396 387.494 25.4196 387.494 25.4996C387.494 26.4996 387.494 27.7596 387.494 29.2796C387.494 30.7996 387.494 32.5396 387.494 34.4996V37.3196Z" fill="white"></path><path d="M331.969 56.2799C332.369 54.4799 332.649 52.6799 332.809 50.8799C332.969 49.0399 333.069 46.9799 333.109 44.6999C333.149 42.3799 333.169 39.9199 333.169 37.3199V32.0999C333.169 29.3399 333.149 26.7999 333.109 24.4799C333.069 22.1199 332.969 20.0799 332.809 18.3599C332.649 16.6399 332.369 14.8799 331.969 13.0799L336.589 13.0199C338.589 13.0199 340.389 13.0199 341.989 13.0199C343.629 13.0199 344.829 13.0199 345.589 13.0199H351.829C351.629 15.3399 351.469 17.3799 351.349 19.1399C351.269 20.8999 351.209 23.0799 351.169 25.6799C351.169 28.2399 351.169 31.2199 351.169 34.6199C351.169 39.2599 351.189 42.5999 351.229 44.6399C351.309 46.6799 351.469 48.5599 351.709 50.2799C351.949 51.9599 352.369 53.9399 352.969 56.2199L346.009 56.2799H342.409C340.609 56.2799 338.789 56.2799 336.949 56.2799C335.109 56.2799 333.449 56.2799 331.969 56.2799ZM363.229 56.8799C361.349 56.5999 359.729 56.4199 358.369 56.3399C357.009 56.2999 355.369 56.2799 353.449 56.2799H340.549L341.629 44.2799H352.789C355.989 44.2799 358.269 44.2399 359.629 44.1599C360.989 44.0799 362.669 43.8599 364.669 43.4999L365.029 43.4399L363.229 56.8799ZM361.909 39.6599C360.749 39.4999 359.609 39.3799 358.489 39.2999C357.369 39.1799 355.969 39.1199 354.289 39.1199H349.069V28.9199H353.809C356.489 28.9199 358.989 28.7399 361.309 28.3799L361.909 39.6599ZM364.309 25.8599C362.149 25.4599 360.389 25.2199 359.029 25.1399C357.669 25.0599 355.349 25.0199 352.069 25.0199H340.909L339.829 13.0199H352.729C354.649 13.0199 356.289 12.9999 357.649 12.9599C359.009 12.8799 360.629 12.6999 362.509 12.4199L364.309 25.8599Z" fill="white"></path><path d="M316.009 57.1796C311.089 57.1796 306.889 56.2596 303.409 54.4196C299.969 52.5396 297.369 49.9396 295.609 46.6196C293.849 43.2996 292.969 39.4596 292.969 35.0996C292.969 30.4196 293.829 26.3596 295.549 22.9196C297.269 19.4396 299.769 16.7796 303.049 14.9396C306.329 13.0596 310.269 12.1196 314.869 12.1196C317.229 12.1196 319.229 12.2396 320.869 12.4796C322.509 12.7196 324.089 13.0396 325.609 13.4396L327.529 28.3196C327.489 28.2796 327.429 28.2596 327.349 28.2596C327.269 28.2596 327.209 28.2396 327.169 28.1996C325.569 27.6396 324.109 27.2196 322.789 26.9396C321.469 26.6596 320.109 26.5196 318.709 26.5196C317.269 26.5196 316.009 26.8196 314.929 27.4196C313.849 28.0196 313.009 28.9196 312.409 30.1196C311.849 31.2796 311.569 32.7396 311.569 34.4996C311.569 36.3796 311.849 37.9396 312.409 39.1796C313.009 40.3796 313.829 41.2796 314.869 41.8796C315.949 42.4796 317.209 42.7796 318.649 42.7796C320.169 42.7796 321.549 42.6396 322.789 42.3596C324.069 42.0796 325.829 41.6196 328.069 40.9796C328.109 40.9796 328.129 40.9796 328.129 40.9796L326.809 55.8596C325.249 56.2596 323.629 56.5796 321.949 56.8196C320.309 57.0596 318.329 57.1796 316.009 57.1796Z" fill="white"></path><path d="M229.219 32.04C229.219 26.84 229.159 22.96 229.039 20.4C228.959 17.8 228.679 15.34 228.199 13.02H248.299C247.939 14.66 247.679 16.38 247.519 18.18C247.399 19.94 247.319 22.02 247.279 24.42C247.239 26.78 247.219 29.32 247.219 32.04L247.279 37.32C247.279 42.52 247.319 46.42 247.399 49.02C247.519 51.58 247.819 54 248.299 56.28H228.199C228.559 54.68 228.799 53 228.919 51.24C229.079 49.44 229.179 47.36 229.219 45C229.259 42.6 229.279 40.04 229.279 37.32L229.219 32.04ZM255.499 56.28C255.099 55.44 254.639 54.38 254.119 53.1C253.639 51.78 253.119 50.34 252.559 48.78C252.079 47.5 251.539 46.1 250.939 44.58C250.379 43.06 249.739 41.38 249.019 39.54L248.299 37.68L247.219 34.86L259.879 23.82L265.759 37.38C267.919 42.42 269.619 46.18 270.859 48.66C272.139 51.14 273.339 53.3 274.459 55.14C274.579 55.34 274.699 55.54 274.819 55.74C274.939 55.9 275.039 56.08 275.119 56.28H255.499ZM250.459 39.36L247.219 34.86L249.679 27C249.839 26.52 249.979 26.06 250.099 25.62C250.259 25.14 250.419 24.68 250.579 24.24C251.459 21.52 252.099 19.32 252.499 17.64C252.939 15.96 253.139 14.42 253.099 13.02H273.739C272.659 14.38 271.359 15.9 269.839 17.58C268.359 19.26 266.939 20.84 265.579 22.32C263.979 24.08 262.819 25.38 262.099 26.22L250.459 39.36Z" fill="white"></path><path d="M200.88 57.1796C196.36 57.1796 192.32 56.2596 188.76 54.4196C185.2 52.5796 182.42 49.9796 180.42 46.6196C178.46 43.2596 177.48 39.3796 177.48 34.9796C177.48 30.4596 178.46 26.4796 180.42 23.0396C182.42 19.5596 185.2 16.8796 188.76 14.9996C192.32 13.0796 196.36 12.1196 200.88 12.1196C205.4 12.1196 209.44 13.0796 213 14.9996C216.56 16.8796 219.32 19.5596 221.28 23.0396C223.28 26.4796 224.28 30.4596 224.28 34.9796C224.28 39.3796 223.28 43.2596 221.28 46.6196C219.32 49.9796 216.56 52.5796 213 54.4196C209.44 56.2596 205.4 57.1796 200.88 57.1796ZM200.82 42.7796C201.74 42.7796 202.56 42.5196 203.28 41.9996C204.04 41.4396 204.62 40.5596 205.02 39.3596C205.46 38.1196 205.68 36.5396 205.68 34.6196C205.68 32.6596 205.46 31.0796 205.02 29.8796C204.58 28.6796 204 27.8196 203.28 27.2996C202.56 26.7796 201.74 26.5196 200.82 26.5196C199.94 26.5196 199.14 26.7996 198.42 27.3596C197.7 27.8796 197.12 28.7596 196.68 29.9996C196.28 31.1996 196.08 32.7596 196.08 34.6796C196.08 36.5996 196.28 38.1596 196.68 39.3596C197.12 40.5596 197.7 41.4396 198.42 41.9996C199.14 42.5196 199.94 42.7796 200.82 42.7796Z" fill="white"></path><path d="M163.02 57.1796C158.1 57.1796 153.9 56.2596 150.42 54.4196C146.98 52.5396 144.38 49.9396 142.62 46.6196C140.86 43.2996 139.98 39.4596 139.98 35.0996C139.98 30.4196 140.84 26.3596 142.56 22.9196C144.28 19.4396 146.78 16.7796 150.06 14.9396C153.34 13.0596 157.28 12.1196 161.88 12.1196C164.24 12.1196 166.24 12.2396 167.88 12.4796C169.52 12.7196 171.1 13.0396 172.62 13.4396L174.54 28.3196C174.5 28.2796 174.44 28.2596 174.36 28.2596C174.28 28.2596 174.22 28.2396 174.18 28.1996C172.58 27.6396 171.12 27.2196 169.8 26.9396C168.48 26.6596 167.12 26.5196 165.72 26.5196C164.28 26.5196 163.02 26.8196 161.94 27.4196C160.86 28.0196 160.02 28.9196 159.42 30.1196C158.86 31.2796 158.58 32.7396 158.58 34.4996C158.58 36.3796 158.86 37.9396 159.42 39.1796C160.02 40.3796 160.84 41.2796 161.88 41.8796C162.96 42.4796 164.22 42.7796 165.66 42.7796C167.18 42.7796 168.56 42.6396 169.8 42.3596C171.08 42.0796 172.84 41.6196 175.08 40.9796C175.12 40.9796 175.14 40.9796 175.14 40.9796L173.82 55.8596C172.26 56.2596 170.64 56.5796 168.96 56.8196C167.32 57.0596 165.34 57.1796 163.02 57.1796Z" fill="white"></path><path d="M119.891 42.42L119.951 31.62H120.611L104.951 56.28H91.5713C91.8913 53.52 92.0713 51.04 92.1113 48.84C92.1913 46.64 92.2313 43.26 92.2313 38.7V26.88C92.2313 25.64 92.2113 24.26 92.1713 22.74C92.1313 21.18 92.0113 19.58 91.8113 17.94C91.6513 16.26 91.3912 14.62 91.0312 13.02H108.431C108.071 14.62 107.791 16.26 107.591 17.94C107.431 19.58 107.331 21.18 107.291 22.74C107.251 24.26 107.231 25.64 107.231 26.88L107.171 31.68H106.451L117.011 13.02H135.971C135.611 14.9 135.351 16.78 135.191 18.66C135.071 20.5 134.991 22.7 134.951 25.26C134.911 27.78 134.891 30.52 134.891 33.48V42.42C134.891 43.66 134.911 45.06 134.951 46.62C134.991 48.14 135.091 49.74 135.251 51.42C135.451 53.06 135.731 54.68 136.091 56.28H118.691C119.051 54.68 119.311 53.06 119.471 51.42C119.671 49.74 119.791 48.14 119.831 46.62C119.871 45.06 119.891 43.66 119.891 42.42Z" fill="white"></path><path d="M57.0001 26.22V13.02H67.6201V26.22H57.0001ZM39.7801 31.98C39.7801 26.78 39.7201 22.9 39.6001 20.34C39.5201 17.74 39.2401 15.3 38.7601 13.02H58.8601C58.5001 14.62 58.2401 16.32 58.0801 18.12C57.9601 19.88 57.8801 21.96 57.8401 24.36C57.8001 26.72 57.7801 29.26 57.7801 31.98V37.32C57.7801 42.52 57.8201 46.42 57.9001 49.02C58.0201 51.58 58.3201 54 58.8001 56.28H38.7001C39.0601 54.68 39.3001 53 39.4201 51.24C39.5801 49.44 39.6801 47.36 39.7201 45C39.7601 42.6 39.7801 40.04 39.7801 37.32V31.98ZM66.8401 31.98C66.8401 26.78 66.7801 22.9 66.6601 20.34C66.5801 17.74 66.3001 15.3 65.8201 13.02H85.9201C85.5601 14.62 85.3001 16.32 85.1401 18.12C85.0201 19.88 84.9401 21.96 84.9001 24.36C84.8601 26.72 84.8401 29.26 84.8401 31.98V37.32C84.8401 42.52 84.8801 46.42 84.9601 49.02C85.0801 51.58 85.3801 54 85.8601 56.28H65.7601C66.1201 54.68 66.3601 53 66.4801 51.24C66.6401 49.44 66.7401 47.36 66.7801 45C66.8201 42.6 66.8401 40.04 66.8401 37.32V31.98Z" fill="white"></path><path d="M23.04 57.1796C18.12 57.1796 13.92 56.2596 10.44 54.4196C7 52.5396 4.4 49.9396 2.64 46.6196C0.88 43.2996 0 39.4596 0 35.0996C0 30.4196 0.86 26.3596 2.58 22.9196C4.3 19.4396 6.8 16.7796 10.08 14.9396C13.36 13.0596 17.3 12.1196 21.9 12.1196C24.26 12.1196 26.26 12.2396 27.9 12.4796C29.54 12.7196 31.12 13.0396 32.64 13.4396L34.56 28.3196C34.52 28.2796 34.46 28.2596 34.38 28.2596C34.3 28.2596 34.24 28.2396 34.2 28.1996C32.6 27.6396 31.14 27.2196 29.82 26.9396C28.5 26.6596 27.14 26.5196 25.74 26.5196C24.3 26.5196 23.04 26.8196 21.96 27.4196C20.88 28.0196 20.04 28.9196 19.44 30.1196C18.88 31.2796 18.6 32.7396 18.6 34.4996C18.6 36.3796 18.88 37.9396 19.44 39.1796C20.04 40.3796 20.86 41.2796 21.9 41.8796C22.98 42.4796 24.24 42.7796 25.68 42.7796C27.2 42.7796 28.58 42.6396 29.82 42.3596C31.1 42.0796 32.86 41.6196 35.1 40.9796C35.14 40.9796 35.16 40.9796 35.16 40.9796L33.84 55.8596C32.28 56.2596 30.66 56.5796 28.98 56.8196C27.34 57.0596 25.36 57.1796 23.04 57.1796Z" fill="white"></path></svg> 