<?xml version="1.0" encoding="UTF-8"?> <svg xmlns="http://www.w3.org/2000/svg" width="370" height="46" viewBox="0 0 370 46" fill="none"><path d="M336.129 44.1603C336.529 42.3603 336.809 40.5603 336.969 38.7603C337.129 36.9203 337.229 34.8603 337.269 32.5803C337.309 30.2603 337.329 27.8003 337.329 25.2003V19.9803C337.329 17.2203 337.309 14.6803 337.269 12.3603C337.229 10.0003 337.129 7.96029 336.969 6.24029C336.809 4.52029 336.529 2.76029 336.129 0.960292L340.749 0.900292C342.749 0.900292 344.549 0.900292 346.149 0.900292C347.789 0.900292 348.989 0.900292 349.749 0.900292H355.989C355.789 3.22029 355.629 5.26029 355.509 7.02029C355.429 8.78029 355.369 10.9603 355.329 13.5603C355.329 16.1203 355.329 19.1003 355.329 22.5003C355.329 27.1403 355.349 30.4803 355.389 32.5203C355.469 34.5603 355.629 36.4403 355.869 38.1603C356.109 39.8403 356.529 41.8203 357.129 44.1003L350.169 44.1603H346.569C344.769 44.1603 342.949 44.1603 341.109 44.1603C339.269 44.1603 337.609 44.1603 336.129 44.1603ZM367.389 44.7603C365.509 44.4803 363.889 44.3003 362.529 44.2203C361.169 44.1803 359.529 44.1603 357.609 44.1603H344.709L345.789 32.1603H356.949C360.149 32.1603 362.429 32.1203 363.789 32.0403C365.149 31.9603 366.829 31.7403 368.829 31.3803L369.189 31.3203L367.389 44.7603ZM366.069 27.5403C364.909 27.3803 363.769 27.2603 362.649 27.1803C361.529 27.0603 360.129 27.0003 358.449 27.0003H353.229V16.8003H357.969C360.649 16.8003 363.149 16.6203 365.469 16.2603L366.069 27.5403ZM368.469 13.7403C366.309 13.3403 364.549 13.1003 363.189 13.0203C361.829 12.9403 359.509 12.9003 356.229 12.9003H345.069L343.989 0.900292H356.889C358.809 0.900292 360.449 0.880292 361.809 0.84029C363.169 0.760291 364.789 0.580292 366.669 0.300293L368.469 13.7403Z" fill="white"></path><path d="M323.48 25.2003C323.48 30.4003 323.52 34.3003 323.6 36.9003C323.72 39.4603 324.02 41.8803 324.5 44.1603H304.4C304.76 42.5603 305 40.8803 305.12 39.1203C305.28 37.3203 305.38 35.2403 305.42 32.8803C305.46 30.4803 305.48 27.9203 305.48 25.2003V0.900292H323.42L323.48 25.2003ZM296.66 0.300293C298.66 0.580292 300.36 0.760291 301.76 0.84029C303.16 0.880292 304.74 0.900292 306.5 0.900292H311.6V12.9003H307.46C304.46 12.9003 302.28 12.9403 300.92 13.0203C299.6 13.1003 297.78 13.3403 295.46 13.7403L296.66 0.300293ZM333.44 13.7403C331.12 13.3403 329.28 13.1003 327.92 13.0203C326.6 12.9403 324.44 12.9003 321.44 12.9003H317.3V0.900292H322.4C324.16 0.900292 325.74 0.880292 327.14 0.84029C328.54 0.760291 330.24 0.580292 332.24 0.300293L333.44 13.7403Z" fill="white"></path><path d="M249.786 19.9204C249.786 14.7204 249.726 10.8404 249.606 8.28039C249.526 5.68039 249.246 3.22039 248.766 0.900391H268.866C268.506 2.54039 268.246 4.26039 268.086 6.06039C267.966 7.82039 267.886 9.90039 267.846 12.3004C267.806 14.6604 267.786 17.2004 267.786 19.9204L267.846 25.2004C267.846 30.4004 267.886 34.3004 267.966 36.9004C268.086 39.4604 268.386 41.8804 268.866 44.1604H248.766C249.126 42.5604 249.366 40.8804 249.486 39.1204C249.646 37.3204 249.746 35.2404 249.786 32.8804C249.826 30.4804 249.846 27.9204 249.846 25.2004L249.786 19.9204ZM276.066 44.1604C275.666 43.3204 275.206 42.2604 274.686 40.9804C274.206 39.6604 273.686 38.2204 273.126 36.6604C272.646 35.3804 272.106 33.9804 271.506 32.4604C270.946 30.9404 270.306 29.2604 269.586 27.4204L268.866 25.5604L267.786 22.7404L280.446 11.7004L286.326 25.2604C288.486 30.3004 290.186 34.0604 291.426 36.5404C292.706 39.0204 293.906 41.1804 295.026 43.0204C295.146 43.2204 295.266 43.4204 295.386 43.6204C295.506 43.7804 295.606 43.9604 295.686 44.1604H276.066ZM271.026 27.2404L267.786 22.7404L270.246 14.8804C270.406 14.4004 270.546 13.9404 270.666 13.5004C270.826 13.0204 270.986 12.5604 271.146 12.1204C272.026 9.40039 272.666 7.20039 273.066 5.52039C273.506 3.84039 273.706 2.30039 273.666 0.900391H294.306C293.226 2.26039 291.926 3.78039 290.406 5.46039C288.926 7.14039 287.506 8.72039 286.146 10.2004C284.546 11.9604 283.386 13.2604 282.666 14.1004L271.026 27.2404Z" fill="white"></path><path d="M212.32 44.1603C212.72 42.3603 213 40.5603 213.16 38.7603C213.32 36.9203 213.42 34.8603 213.46 32.5803C213.5 30.2603 213.52 27.8003 213.52 25.2003V19.9803C213.52 17.2203 213.5 14.6803 213.46 12.3603C213.42 10.0003 213.32 7.96029 213.16 6.24029C213 4.52029 212.72 2.76029 212.32 0.960292L216.94 0.900292C218.94 0.900292 220.74 0.900292 222.34 0.900292C223.98 0.900292 225.18 0.900292 225.94 0.900292H232.18C231.98 3.22029 231.82 5.26029 231.7 7.02029C231.62 8.78029 231.56 10.9603 231.52 13.5603C231.52 16.1203 231.52 19.1003 231.52 22.5003C231.52 27.1403 231.54 30.4803 231.58 32.5203C231.66 34.5603 231.82 36.4403 232.06 38.1603C232.3 39.8403 232.72 41.8203 233.32 44.1003L226.36 44.1603H222.76C220.96 44.1603 219.14 44.1603 217.3 44.1603C215.46 44.1603 213.8 44.1603 212.32 44.1603ZM243.58 44.7603C241.7 44.4803 240.08 44.3003 238.72 44.2203C237.36 44.1803 235.72 44.1603 233.8 44.1603H220.9L221.98 32.1603H233.14C236.34 32.1603 238.62 32.1203 239.98 32.0403C241.34 31.9603 243.02 31.7403 245.02 31.3803L245.38 31.3203L243.58 44.7603ZM242.26 27.5403C241.1 27.3803 239.96 27.2603 238.84 27.1803C237.72 27.0603 236.32 27.0003 234.64 27.0003H229.42V16.8003H234.16C236.84 16.8003 239.34 16.6203 241.66 16.2603L242.26 27.5403ZM244.66 13.7403C242.5 13.3403 240.74 13.1003 239.38 13.0203C238.02 12.9403 235.7 12.9003 232.42 12.9003H221.26L220.18 0.900292H233.08C235 0.900292 236.64 0.880292 238 0.84029C239.36 0.760291 240.98 0.580292 242.86 0.300293L244.66 13.7403Z" fill="white"></path><path d="M185.002 45.06C180.482 45.06 176.442 44.14 172.882 42.3C169.322 40.46 166.542 37.86 164.542 34.5C162.582 31.14 161.602 27.26 161.602 22.86C161.602 18.34 162.582 14.36 164.542 10.92C166.542 7.44 169.322 4.76 172.882 2.88C176.442 0.960001 180.482 0 185.002 0C189.522 0 193.562 0.960001 197.122 2.88C200.682 4.76 203.442 7.44 205.402 10.92C207.402 14.36 208.402 18.34 208.402 22.86C208.402 27.26 207.402 31.14 205.402 34.5C203.442 37.86 200.682 40.46 197.122 42.3C193.562 44.14 189.522 45.06 185.002 45.06ZM184.942 30.66C185.862 30.66 186.682 30.4 187.402 29.88C188.162 29.32 188.742 28.44 189.142 27.24C189.582 26 189.802 24.42 189.802 22.5C189.802 20.54 189.582 18.96 189.142 17.76C188.702 16.56 188.122 15.7 187.402 15.18C186.682 14.66 185.862 14.4 184.942 14.4C184.062 14.4 183.262 14.68 182.542 15.24C181.822 15.76 181.242 16.64 180.802 17.88C180.402 19.08 180.202 20.64 180.202 22.56C180.202 24.48 180.402 26.04 180.802 27.24C181.242 28.44 181.822 29.32 182.542 29.88C183.262 30.4 184.062 30.66 184.942 30.66Z" fill="white"></path><path d="M138.705 25.2C138.705 30.4 138.745 34.3 138.825 36.9C138.945 39.46 139.245 41.88 139.725 44.16H119.625C119.985 42.56 120.225 40.88 120.345 39.12C120.505 37.32 120.605 35.24 120.645 32.88C120.685 30.48 120.705 27.92 120.705 25.2V21.84C120.705 18.8 120.685 15.94 120.645 13.26C120.605 10.54 120.505 8.2 120.345 6.24C120.225 4.28 120.005 2.5 119.685 0.900002C126.205 0.300001 132.145 0 137.505 0C145.505 0 151.325 1.28 154.965 3.84C158.605 6.4 160.425 10.02 160.425 14.7C160.425 18.62 159.525 21.68 157.725 23.88C155.965 26.08 153.605 27.62 150.645 28.5C147.685 29.38 144.105 29.92 139.905 30.12C140.865 29.32 141.685 27.82 142.365 25.62C143.045 23.38 143.385 21.04 143.385 18.6C143.385 16.92 143.065 15.56 142.425 14.52C141.825 13.44 140.785 12.9 139.305 12.9C139.185 12.9 139.085 12.9 139.005 12.9C138.925 12.9 138.825 12.9 138.705 12.9C138.705 12.98 138.705 13.06 138.705 13.14C138.705 13.22 138.705 13.3 138.705 13.38C138.705 14.38 138.705 15.64 138.705 17.16C138.705 18.68 138.705 20.42 138.705 22.38V25.2Z" fill="white"></path><path d="M85.5938 14.1004V0.900391H96.2138V14.1004H85.5938ZM68.3738 19.8604C68.3738 14.6604 68.3138 10.7804 68.1938 8.22039C68.1138 5.62039 67.8338 3.18039 67.3538 0.900391H87.4538C87.0938 2.50039 86.8338 4.20039 86.6738 6.00039C86.5538 7.76039 86.4738 9.84039 86.4338 12.2404C86.3938 14.6004 86.3738 17.1404 86.3738 19.8604V25.2004C86.3738 30.4004 86.4138 34.3004 86.4938 36.9004C86.6138 39.4604 86.9138 41.8804 87.3938 44.1604H67.2938C67.6538 42.5604 67.8938 40.8804 68.0138 39.1204C68.1738 37.3204 68.2738 35.2404 68.3138 32.8804C68.3538 30.4804 68.3738 27.9204 68.3738 25.2004V19.8604ZM95.4338 19.8604C95.4338 14.6604 95.3738 10.7804 95.2538 8.22039C95.1738 5.62039 94.8938 3.18039 94.4138 0.900391H114.514C114.154 2.50039 113.894 4.20039 113.734 6.00039C113.614 7.76039 113.534 9.84039 113.494 12.2404C113.454 14.6004 113.434 17.1404 113.434 19.8604V25.2004C113.434 30.4004 113.474 34.3004 113.554 36.9004C113.674 39.4604 113.974 41.8804 114.454 44.1604H94.3538C94.7138 42.5604 94.9538 40.8804 95.0738 39.1204C95.2338 37.3204 95.3338 35.2404 95.3738 32.8804C95.4138 30.4804 95.4338 27.9204 95.4338 25.2004V19.8604Z" fill="white"></path><path d="M23.4 45.06C18.88 45.06 14.84 44.14 11.28 42.3C7.72 40.46 4.94 37.86 2.94 34.5C0.98 31.14 0 27.26 0 22.86C0 18.34 0.98 14.36 2.94 10.92C4.94 7.44 7.72 4.76 11.28 2.88C14.84 0.960001 18.88 0 23.4 0C27.92 0 31.96 0.960001 35.52 2.88C39.08 4.76 41.84 7.44 43.8 10.92C45.8 14.36 46.8 18.34 46.8 22.86C46.8 27.26 45.8 31.14 43.8 34.5C41.84 37.86 39.08 40.46 35.52 42.3C31.96 44.14 27.92 45.06 23.4 45.06ZM23.34 30.66C24.26 30.66 25.08 30.4 25.8 29.88C26.56 29.32 27.14 28.44 27.54 27.24C27.98 26 28.2 24.42 28.2 22.5C28.2 20.54 27.98 18.96 27.54 17.76C27.1 16.56 26.52 15.7 25.8 15.18C25.08 14.66 24.26 14.4 23.34 14.4C22.46 14.4 21.66 14.68 20.94 15.24C20.22 15.76 19.64 16.64 19.2 17.88C18.8 19.08 18.6 20.64 18.6 22.56C18.6 24.48 18.8 26.04 19.2 27.24C19.64 28.44 20.22 29.32 20.94 29.88C21.66 30.4 22.46 30.66 23.34 30.66Z" fill="white"></path></svg> 