<?xml version="1.0" encoding="UTF-8"?> <svg xmlns="http://www.w3.org/2000/svg" width="128" height="67" viewBox="0 0 128 67" fill="none"><path d="M0 58.0964L5.4602 63.4946L17.336 51.0881L16.7845 66.0848L23.7826 65.727L24.1088 51.2826L36.1942 62.919L39.7748 58.6954L30.2447 48.7546L20.6991 38.2148L10.1282 47.6967L0 58.0964Z" fill="white"></path><path d="M42.8662 57.9876L48.5672 63.3936L60.3808 51.5626L59.8216 66.1394L67.9226 66.1549L67.2624 51.2904L79.3401 62.9502L84.9867 57.9332L73.6546 48.4902L63.8527 37.2271L53.3051 47.7123L42.8662 57.9876Z" fill="white"></path><path d="M86.749 58.26L91.9063 63.8137L103.588 51.3294L102.679 66.2717L109.304 65.385L110.384 51.1349L122.407 63.1448L128 57.9877L116.838 48.4669L107.005 37.9194L97.2811 48.5681L86.749 58.26Z" fill="white"></path><path d="M42.6641 39.0087L48.1476 43.1545L55.6349 35.8117L63.8524 29.3479L71.3942 36.4962L79.1068 44.9747L83.27 39.6621L73.6 29.6435L63.8524 20.3794L53.6311 29.1534L42.6641 39.0087Z" fill="white"></path><path d="M87.0918 39.4752L91.317 43.2088L99.0685 36.0916L107.006 27.9865L115.302 35.7338L122.385 44.4845L126.828 39.5141L116.459 29.9311L107.006 18.8857L96.3889 28.7721L87.0918 39.4752Z" fill="white"></path><path d="M107.006 9.24074L114.92 17.2136L122.353 25.6765L126.276 20.8072L117.336 10.1508L107.006 0L97.1495 10.6253L87.9922 20.9006L91.5417 25.202L98.6252 16.7625L107.006 9.24074Z" fill="white"></path></svg> 